<?xml version="1.0" encoding="UTF-8"?>
<svg version="1.1" xmlns="http://www.w3.org/2000/svg" width="834" height="956">
<path d="M0 0 C1.09731445 0.13390137 2.19462891 0.26780273 3.32519531 0.40576172 C71.98498415 8.92883211 139.53555436 36.24833837 194 79 C194.80824219 79.62777344 195.61648438 80.25554687 196.44921875 80.90234375 C211.54772427 92.7915051 225.75936672 105.70050789 239.375 119.25 C240.35605713 120.22404785 240.35605713 120.22404785 241.35693359 121.21777344 C245.77289835 125.64836432 249.92837504 130.25264806 254 135 C254.88927247 136.02087728 255.77859131 137.04171417 256.66796875 138.0625 C263.28231719 145.77411244 269.4896251 153.72389996 275.48388672 161.92626953 C276.48644911 163.29756824 277.49322483 164.66579749 278.50439453 166.03076172 C323.35129155 226.67848667 354.46631203 331.76019414 343.46533203 407.50830078 C340.57317046 425.63645666 334.8832914 442.29400251 328.25518799 459.33441162 C322.52904118 474.0937546 317.98817381 488.93733928 313.98486328 504.24609375 C312.99075887 508.0352235 311.96684311 511.81512137 310.93359375 515.59375 C309.71943226 520.04368027 308.50665319 524.49387194 307.3125 528.94921875 C307.08175781 529.80862061 306.85101562 530.66802246 306.61328125 531.5534668 C303.8620623 542.52877139 304.57549905 551.53173628 307.8125 562.25 C314.61550655 584.78909209 316.57950729 606.09877332 310 629 C309.81808105 629.65162109 309.63616211 630.30324219 309.44873047 630.97460938 C305.50715537 644.7965403 299.51513278 658.12868738 290 669 C289.20529297 670.00740234 289.20529297 670.00740234 288.39453125 671.03515625 C277.19532726 684.84130083 259.49069987 693.5884455 242 696 C230.99627222 697.09677287 220.58370998 695.93421082 209.84863281 693.42382812 C204.75420154 692.23927274 200.23511172 691.80854449 195 692 C194.18247697 693.58074564 193.37118003 695.16471223 192.5625 696.75 C192.11003906 697.63171875 191.65757812 698.5134375 191.19140625 699.421875 C188.91682993 704.343909 188.84701426 708.88606698 188.875 714.25 C188.87113281 714.97574219 188.86726562 715.70148437 188.86328125 716.44921875 C188.86965728 720.02617011 189.01377354 723.50037151 189.4921875 727.046875 C192.29607323 748.87404698 187.71288692 772.83509344 175 791 C169.07307526 798.5287963 162.74306535 805.61784364 153.375 808.375 C150.04839187 809.78371671 149.14087915 810.72150952 147.484375 813.99609375 C146.4773216 816.67774538 145.60224701 819.4004514 144.70703125 822.12109375 C131.81678938 860.64850598 103.6406928 897.54592845 67 916 C56.37258252 920.94210175 45.34701449 925.05883764 34 928 C33.24283691 928.19754883 32.48567383 928.39509766 31.70556641 928.59863281 C8.25996363 934.41599862 -18.4328457 934.09799169 -42 929 C-42.9187793 928.81195801 -43.83755859 928.62391602 -44.78417969 928.43017578 C-69.42933468 923.31644851 -93.42528524 915.13871334 -116 904 C-116.76892578 903.62439941 -117.53785156 903.24879883 -118.33007812 902.86181641 C-136.68350195 893.81138952 -154.11204715 882.90472415 -170 870 C-170.87527344 869.31550781 -171.75054687 868.63101563 -172.65234375 867.92578125 C-177.83820933 863.85859237 -182.77833158 859.58042667 -187.64453125 855.13671875 C-189.66993971 853.29940792 -191.72831255 851.51959312 -193.8125 849.75 C-202.6348946 842.0348695 -210.75803744 833.6461616 -218.03515625 824.4609375 C-219.73138995 822.33643009 -221.48334188 820.3215034 -223.3125 818.3125 C-232.74385566 807.58622136 -240.76754342 795.6452076 -248.57226562 783.71435547 C-254.37414218 775.00361458 -260.44532524 768.2458906 -269.8125 763.4375 C-271.21850006 762.67641967 -272.62344566 761.91338822 -274.02734375 761.1484375 C-275.04417236 760.60074707 -275.04417236 760.60074707 -276.08154297 760.04199219 C-287.9842629 753.57713998 -298.36495599 745.65536968 -304 733 C-304.3609375 732.21367188 -304.721875 731.42734375 -305.09375 730.6171875 C-307.71011583 723.06130343 -306.68403821 715.51369994 -303.25 708.4375 C-300.70381665 703.69876987 -298.30448186 699.78450446 -293.0625 698 C-284.02438957 697.25792357 -274.53608517 702.56932144 -266.4375 706.0625 C-251.28985617 712.55859747 -236.01158507 716.36733583 -220 710 C-217.8506427 708.79341914 -215.98352756 707.47493075 -214 706 C-213.34 706 -212.68 706 -212 706 C-212.33 704.35 -212.66 702.7 -213 701 C-213.74121094 700.91363281 -214.48242188 700.82726562 -215.24609375 700.73828125 C-234.86620541 698.12066537 -253.07618726 690.94991859 -270.0625 680.875 C-276.20713176 677.48998021 -280.26793744 677.57837916 -287 679 C-306.2117831 682.33821763 -323.55749346 680.39998377 -340.2578125 669.9453125 C-358.47423459 657.02255153 -368.95165716 639.89300526 -373.5625 618.25 C-373.78099609 617.28843994 -373.99949219 616.32687988 -374.22460938 615.33618164 C-375.15278274 611.20754185 -376.03842031 607.12356621 -376.52734375 602.91796875 C-377.92149718 592.65192989 -383.03215819 588.15267352 -390.39013672 581.51416016 C-394.38533914 577.75646446 -397.6435931 573.3197078 -401 569 C-401.77601563 568.02933594 -402.55203125 567.05867187 -403.3515625 566.05859375 C-437.20916995 523.11854874 -458.73621852 471.94036603 -467 418 C-467.24991699 416.37795654 -467.24991699 416.37795654 -467.50488281 414.72314453 C-472.48605807 380.39634982 -473.08986983 342.1864391 -467 308 C-466.70198486 306.28876953 -466.70198486 306.28876953 -466.39794922 304.54296875 C-456.04795563 246.80008316 -431.59815904 191.9011116 -395 146 C-394.20851563 144.99453125 -393.41703125 143.9890625 -392.6015625 142.953125 C-383.60115713 131.7107414 -373.56659556 121.46675463 -363.4375 111.25 C-362.57543945 110.3748877 -361.71337891 109.49977539 -360.82519531 108.59814453 C-355.61280633 103.3788478 -350.22144905 98.57332543 -344.44824219 93.98071289 C-342.15400584 92.12459607 -339.97566935 90.19355378 -337.8125 88.1875 C-320.00272916 72.26569073 -299.1349494 59.83391951 -278.32617188 48.29443359 C-276.31735299 47.17659588 -274.32120939 46.0400526 -272.328125 44.89453125 C-244.59676664 29.39947502 -213.67883975 18.86428779 -183 11 C-181.97890137 10.73590332 -180.95780273 10.47180664 -179.90576172 10.19970703 C-161.47979206 5.50243556 -142.85396503 2.34240986 -124 0 C-122.97990845 -0.12695251 -122.97990845 -0.12695251 -121.93920898 -0.25646973 C-81.80904552 -5.1553829 -40.08661416 -5.23736116 0 0 Z M-135 30 C-135.84771973 30.13051758 -136.69543945 30.26103516 -137.56884766 30.39550781 C-139.96508279 30.77074883 -142.35798519 31.16130031 -144.75 31.5625 C-145.44794678 31.677146 -146.14589355 31.79179199 -146.86499023 31.90991211 C-150.19209503 32.50234111 -152.13668315 33.0911221 -155 35 C-154.5724085 38.31383413 -153.5868991 41.03214566 -152.1875 44.03125 C-149.89569445 49.10853621 -148.05103756 54.29465838 -146.25 59.5625 C-145.77626953 60.93245117 -145.77626953 60.93245117 -145.29296875 62.33007812 C-144.52511628 64.55219664 -143.76085976 66.77547959 -143 69 C-139.08958733 68.17697181 -137.1495099 66.64759529 -134.125 64 C-116.94268994 49.71536542 -97.92360363 41.86887123 -76 38 C-74.95328125 37.80792969 -73.9065625 37.61585937 -72.828125 37.41796875 C-40.6770669 33.90759812 -5.84919369 39.57327761 24.875 49.0625 C25.96035034 49.39374878 25.96035034 49.39374878 27.06762695 49.73168945 C38.70542868 53.58415533 46.74931624 61.04464884 52.3125 71.9375 C55.04481414 78.1701301 56.16818235 84.37157898 56.97583008 91.08374023 C57.22916014 93.06906049 57.60588579 95.03776999 58 97 C60.87573913 98.91715942 62.68291498 99.57713576 65.97265625 100.40234375 C66.95556641 100.65306641 67.93847656 100.90378906 68.95117188 101.16210938 C69.97791016 101.41798828 71.00464844 101.67386719 72.0625 101.9375 C78.71105089 103.61356924 85.30817696 105.33446179 91.84155273 107.42089844 C95.06355257 108.28534631 97.68273006 108.34554895 101 108 C103.39262381 105.60737619 103.37382928 104.98371016 103.5 101.6875 C103.26545835 88.98874522 98.45790358 72.40592306 91 62 C87.3875243 59.61576604 84.27165637 59.76268576 80 60 C79.01 60.495 79.01 60.495 78 61 C78.76779374 64.59467071 80.11481303 67.85145987 81.5 71.25 C83.46827502 76.28129667 84.6836025 80.62124245 85 86 C80.83272617 85.36053902 77.49890525 84.39692783 74 82 C72.40882617 78.36806859 71.64543866 74.75304252 70.87109375 70.890625 C68.67311532 61.07364509 62.38517547 53.51703702 56 46 C55.22527344 44.95457031 54.45054687 43.90914062 53.65234375 42.83203125 C50.58219344 39.55388843 48.96864197 38.93705535 44.625 38 C43.96000488 37.85248291 43.29500977 37.70496582 42.60986328 37.55297852 C40.07866038 37.00571367 37.54031648 36.50329478 35 36 C33.87013672 35.76780762 32.74027344 35.53561523 31.57617188 35.29638672 C15.13034325 31.9219495 -1.30974552 28.89381747 -18 27 C-18.83644043 26.89703613 -19.67288086 26.79407227 -20.53466797 26.68798828 C-58.03185046 22.15221215 -97.77781707 24.18963805 -135 30 Z M-216.9609375 55.8671875 C-220.65035339 60.0605236 -223.05764831 63.18407826 -222.875 68.9375 C-222.4778877 72.9324497 -220.78646521 75.15395577 -218 78 C-214.78827633 79.64348399 -214.78827633 79.64348399 -211.125 80.875 C-204.71481494 83.25980415 -198.69690903 86.08155418 -192.609375 89.21484375 C-189.42198693 90.82702816 -186.17196009 92.23994138 -182.8815918 93.62744141 C-162.12157158 102.38216852 -162.12157158 102.38216852 -158 111 C-157.06952033 114.7027214 -156.88280364 118.14671033 -156.90234375 121.95703125 C-156.90717773 123.62475586 -156.90717773 123.62475586 -156.91210938 125.32617188 C-156.92467773 127.0519043 -156.92467773 127.0519043 -156.9375 128.8125 C-156.94201172 129.98232422 -156.94652344 131.15214844 -156.95117188 132.35742188 C-156.9629307 135.23833358 -156.97936574 138.11914044 -157 141 C-158.09699219 140.94199219 -159.19398438 140.88398438 -160.32421875 140.82421875 C-161.77860314 140.77730312 -163.23303374 140.73180489 -164.6875 140.6875 C-165.40873047 140.64560547 -166.12996094 140.60371094 -166.87304688 140.56054688 C-170.9393709 140.46770843 -172.51235712 140.61704499 -175.8203125 143.21484375 C-183.87496006 153.50689341 -187.16809451 162.87002628 -186 176 C-183.26323464 190.02797094 -174.67477395 204.25592025 -162.8125 212.5625 C-156.05871066 215.86086224 -146.94041021 215.7948109 -139.75 214.125 C-132.48075282 211.52198574 -127.40109288 205.68693727 -122.375 200.0625 C-120.40108776 195.6660591 -120.33955467 191.74247489 -121 187 C-122.36547308 183.92768557 -123.94549424 182.06073499 -126.1875 179.5625 C-128.38690475 176.45299674 -128.42393886 174.730662 -128 171 C-127 170 -127 170 -124.2578125 169.79296875 C-111.81498678 170.58369988 -101.94678545 182.97919916 -93.73046875 191.328125 C-92.19591193 192.88600735 -90.66074458 194.44328852 -89.125 196 C-88.3604248 196.77504883 -87.59584961 197.55009766 -86.80810547 198.34863281 C-79.4654129 205.70221728 -71.6506808 212.23287947 -63 218 C-63.68811768 218.01981934 -64.37623535 218.03963867 -65.08520508 218.06005859 C-92.7564513 218.89348826 -118.07145805 222.11373677 -144.70068359 229.89599609 C-159.92787326 234.33689574 -175.03936137 238.52707131 -190 231 C-202.47868841 223.67743632 -209.32775505 209.72284088 -213.125 196.1875 C-214.54047192 190.44164365 -215.64771099 184.65652973 -216.74902344 178.84326172 C-220.75889679 156.09461674 -220.75889679 156.09461674 -233 137 C-236.57276854 135.77133 -238.61720658 135.91772566 -242 137.5 C-245.39649896 138.89441954 -247.4550942 139.41796232 -251 138 C-252.875 136.9375 -252.875 136.9375 -254 135 C-254.36563848 128.17474843 -251.55586377 123.86989746 -247.4453125 118.55859375 C-240.20817992 110.98619464 -230.63501037 108.03435409 -220.4375 107.6875 C-215.53974854 107.7964903 -212.16544383 108.37395932 -208 111 C-206.65254423 114.28442343 -206.89019551 116.67058652 -208 120 C-209.134375 120.309375 -210.26875 120.61875 -211.4375 120.9375 C-214.78775099 121.62924531 -214.78775099 121.62924531 -216 123 C-216.42427406 126.3820704 -216.45753594 129.62084903 -216 133 C-214.2965156 135.49270537 -214.2965156 135.49270537 -211 136 C-205.87386477 136.1537072 -201.51194559 135.85046939 -197 133.3125 C-190.90283052 126.26264779 -190.73427166 118.73336029 -191.1875 109.8125 C-191.81349793 103.57629275 -193.7816798 100.28356491 -198.125 95.8125 C-207.73997537 89.7508851 -219.62280599 89.62901704 -230.53125 91.65625 C-246.8409579 96.16083599 -258.77935148 107.18084768 -268.1875 120.7890625 C-271.30770808 126.3166725 -272.65391995 131.67877384 -272 138 C-270.18777522 143.76973185 -268.19171306 147.64192521 -263 151 C-259.41260369 151.97504745 -259.41260369 151.97504745 -255.5625 152.5 C-249.34860288 153.45309017 -244.48439208 154.78642271 -240.49609375 159.9453125 C-234.9580618 171.34834509 -232.43638142 183.81689513 -229.81884766 196.14233398 C-225.61635585 215.84032738 -220.53432817 234.83154743 -203.4921875 247.4140625 C-191.00010345 255.36357053 -176.25790063 255.85299953 -161.94360352 253.07543945 C-151.38602902 250.70489973 -141.0189141 247.45133686 -130.62405396 244.45904541 C-108.72599933 238.15838221 -87.87882203 232.98106699 -65 232 C-64.29311035 231.96148926 -63.5862207 231.92297852 -62.85791016 231.88330078 C-43.87781898 230.88695753 -25.79028164 236.46640676 -7.72045898 241.50732422 C-6.92843079 241.72781433 -6.13640259 241.94830444 -5.32037354 242.17547607 C-3.82453543 242.59328254 -2.32955871 243.01419037 -0.83563232 243.43878174 C6.16398641 245.40094852 12.6520675 246.20176673 19.875 246.25 C20.63941406 246.270625 21.40382813 246.29125 22.19140625 246.3125 C28.41274092 246.35475015 34.01322662 245.37064135 38.98828125 241.421875 C46.76166408 231.60769255 48.3921514 220.60716189 48.375 208.375 C48.37693359 206.9041394 48.37693359 206.9041394 48.37890625 205.40356445 C48.25959165 196.85291078 47.06627449 188.62721533 45.42333984 180.24560547 C42.5838919 165.60335876 44.82942233 155.50345335 52.8125 142.75 C55.87897193 137.66822664 57.38254721 133.88149181 56 128 C54.4785984 123.10978057 51.94641562 120.68228411 47.5625 118.125 C35.57015539 111.82641205 21.32305558 115.37783118 9 119 C1.29118443 121.75654318 -4.32631167 125.63229111 -8.02734375 133.0625 C-11.1282091 141.06473316 -11.1378548 148.84065267 -8 156.8125 C-5.61167433 162.06681647 -2.75740523 167.00876247 0.1796875 171.96850586 C2.85119411 176.54153437 4.59565388 180.9092453 6 186 C-4.25779912 180.2968725 -13.54062906 173.8011785 -21.66796875 165.296875 C-33.93748836 153.21232303 -48.51143893 145.39334134 -66 145 C-67.27487723 146.08113116 -67.27487723 146.08113116 -67.4375 148.625 C-66.80976633 153.46751691 -64.62813826 155.83977639 -61 159 C-58.55271378 160.56218437 -56.04656138 161.98213699 -53.5234375 163.41796875 C-44.50722211 169.0705496 -39.51183507 177.71904036 -35.02734375 187.08984375 C-34.68123047 187.8065625 -34.33511719 188.52328125 -33.97851562 189.26171875 C-33.29716681 190.68577613 -32.62987127 192.11666404 -31.97851562 193.5546875 C-29.96928493 197.78768687 -28.33485823 200.11883511 -24 202 C-20.40080577 202.89592083 -20.40080577 202.89592083 -17 203 C-16.34 202.34 -15.68 201.68 -15 201 C-15.34165805 197.63920045 -16.83448293 195.68564182 -18.9375 193.125 C-21.47338372 189.87760934 -22.98804617 187.04781533 -24 183 C-23.58492187 183.47308594 -23.16984375 183.94617188 -22.7421875 184.43359375 C-16.63369189 190.98936414 -9.6011141 195.39574092 -2 200 C-1.12730469 200.56976563 -0.25460937 201.13953125 0.64453125 201.7265625 C4.44240003 203.77980499 7.80921871 203.86392236 12 203 C15.13492783 200.88872207 15.78811864 200.39093727 17 197 C18.90755457 182.99991201 14.53525708 170.27901639 9.05078125 157.578125 C7.07994008 152.74260391 6.49692514 148.9258297 8 143.9375 C10.39148343 138.4285471 14.06937334 135.2129784 19.5859375 132.9296875 C25.98407613 130.94035028 32.7841834 129.8920917 39 133 C38.47140479 137.39444076 36.92076978 139.75443203 34.1875 143.1875 C28.25640244 151.12047609 25.10147446 157.93724448 26 168 C26.84527867 172.64031849 27.93314509 177.21887939 29 181.8125 C30.93280827 190.65306005 32.59699338 199.24098091 32.625 208.3125 C32.64046875 209.4732605 32.64046875 209.4732605 32.65625 210.6574707 C32.5339291 215.59126225 31.29556429 219.07840152 28.85302734 223.36010742 C27.84617556 224.9876369 27.84617556 224.9876369 28 227 C17.38278473 230.53907176 9.45929851 228.41462165 -1 225 C-2.15886719 224.62230469 -3.31773437 224.24460938 -4.51171875 223.85546875 C-32.7150619 213.93484539 -58.62956253 199.84788952 -79.5 178.375 C-92.36820702 165.24311599 -109.00793945 154.91291461 -127.8125 154.625 C-134.41774712 154.58085528 -139.1436546 155.31067177 -144 160 C-148.76711652 165.01801739 -150.27604269 169.44005758 -150.125 176.3125 C-150.10695313 177.38113281 -150.08890625 178.44976562 -150.0703125 179.55078125 C-150.04710937 180.35902344 -150.02390625 181.16726562 -150 182 C-149.45730469 182.25394531 -148.91460937 182.50789062 -148.35546875 182.76953125 C-147.64003906 183.11371094 -146.92460937 183.45789063 -146.1875 183.8125 C-145.47980469 184.14894531 -144.77210938 184.48539063 -144.04296875 184.83203125 C-141.95590108 186.02521143 -140.54063559 187.16071813 -139 189 C-138.5 191.4375 -138.5 191.4375 -139 194 C-142.09286967 197.47947838 -145.22580002 198.80514501 -149.88671875 199.15625 C-155.46873353 198.74353172 -159.6270819 195.71871041 -163.3125 191.6875 C-169.04213129 184.41647334 -170.17952356 176.7567122 -170.1875 167.6875 C-170.19974609 166.96626953 -170.21199219 166.24503906 -170.22460938 165.50195312 C-170.23845487 160.35604523 -169.41468981 155.9486185 -168 151 C-166.6875 151.3125 -165.375 151.625 -164.0625 151.9375 C-163.33160156 152.11152344 -162.60070312 152.28554687 -161.84765625 152.46484375 C-160 153 -160 153 -159 154 C-154.91814831 154.40018154 -152.47250305 154.22716493 -148.75 152.4375 C-144.89069233 149.01675002 -143.29158247 145.55509121 -142.71484375 140.5012207 C-142.59584139 137.63977818 -142.58463761 134.80111776 -142.625 131.9375 C-142.63370117 130.91760986 -142.64240234 129.89771973 -142.65136719 128.84692383 C-142.88475574 116.77480523 -144.38369647 102.83063943 -152.3125 93.1875 C-158.29949801 88.31436208 -163.86300794 84.92429817 -171 82.0625 C-171.82580566 81.72186523 -172.65161133 81.38123047 -173.50244141 81.03027344 C-177.45139462 79.40812403 -181.41607646 77.83115343 -185.3984375 76.29296875 C-186.07261719 76.03056396 -186.74679687 75.76815918 -187.44140625 75.49780273 C-189.25657119 74.79580145 -191.07733349 74.10832219 -192.8984375 73.421875 C-196.05756151 71.9736116 -198.39533595 70.28273928 -201 68 C-198.92341596 63.14058252 -195.47873773 60.63550271 -191 58 C-187.1875 56.9375 -187.1875 56.9375 -184 57 C-181.63933104 58.49509034 -181.14469658 59.53960178 -180.3125 62.1875 C-180.209375 62.785625 -180.10625 63.38375 -180 64 C-173.56054147 64.45189183 -170.32379836 63.69406417 -165 60 C-163.24333337 56.48666675 -163.44388724 52.83362837 -164 49 C-165.37922743 45.79787758 -167.07757673 42.9042323 -169 40 C-186.20231053 39.03438174 -204.22052539 43.73587876 -216.9609375 55.8671875 Z M-86 52 C-86.63244629 52.17692383 -87.26489258 52.35384766 -87.91650391 52.53613281 C-105.83663381 57.65869772 -121.20334955 66.70434311 -131 83 C-136.07794041 93.4212784 -136.09403396 104.08624889 -133.02734375 115.109375 C-129.42575112 125.24313374 -122.4773943 130.73968271 -113.07421875 135.47265625 C-102.58384067 140.13958191 -92.2582164 142.70411706 -81.125 139.05859375 C-72.83848703 135.8560256 -64.01023212 131.63607667 -59 124 C-56.1250975 116.58577777 -55.67193206 108.53130101 -58.625 101.0625 C-61.0058088 96.40077647 -63.9193916 94.10569555 -68.8828125 92.32421875 C-77.37029191 89.87782763 -84.87824891 90.74568868 -93 94 C-97.65601807 96.83409795 -99.74116402 100.14768567 -102 105 C-102.83399875 108.08681086 -102.83399875 108.08681086 -102 111 C-99.3371257 113.84865623 -97.48447288 115.78995535 -93.54296875 116.34765625 C-90.32592579 115.90784546 -89.27131044 114.8383897 -87 112.5625 C-84.09947957 109.6678274 -82.16782174 108.26048886 -78 108 C-77.01 108.66 -76.02 109.32 -75 110 C-75 113.84578035 -75.12871553 115.98214431 -77.671875 118.953125 C-83.3828337 124.06293015 -87.93179735 126.51777155 -95.66796875 126.3125 C-102.3814456 125.41287161 -108.59463116 121.00762179 -113 116 C-116.86144859 110.06544332 -118.09667798 103.98583875 -117 97 C-113.56181705 85.96623941 -106.2850684 80.21095514 -96.546875 74.58203125 C-82.79790184 67.37490822 -68.90274975 64.61498433 -53.5 64.6875 C-52.26765625 64.69241455 -51.0353125 64.6973291 -49.765625 64.70239258 C-36.12532165 64.87628504 -20.93987805 65.60119032 -9 73 C-5.03206014 77.38961988 -3.39741702 81.21808089 -2.5625 87.0625 C-3 90 -3 90 -5.1875 92.9375 C-8 95 -8 95 -10.5625 95 C-15.40443235 93.01356622 -17.11728788 91.07929866 -19.25 86.3125 C-19.84423758 84.87947323 -20.43115441 83.4432944 -21 82 C-26.60109448 81.71028822 -30.14750673 81.84023694 -35 85 C-38.77727987 89.21628576 -39.13477706 93.48312579 -39 99 C-37.2666896 103.58817458 -33.92063138 106.15562037 -30 109 C-21.63308337 112.50157304 -10.99265231 112.50853258 -2.3671875 109.90234375 C4.53989019 106.65653656 9.72716545 102.62513884 13.1171875 95.7265625 C15.65574875 87.88622732 14.97258826 78.98723511 11.5625 71.5625 C5.56057962 61.17778194 -2.5999793 56.18619069 -14 53 C-19.62121691 51.72475047 -25.29576163 50.8106835 -31 50 C-32.17949219 49.814375 -33.35898437 49.62875 -34.57421875 49.4375 C-41.01453046 48.66028882 -47.52206851 48.75565783 -54 48.75 C-54.69319336 48.74932526 -55.38638672 48.74865051 -56.10058594 48.74795532 C-66.3589528 48.76382826 -76.05255723 49.16435497 -86 52 Z M-293.59960938 81.28857422 C-295.73118288 82.8083393 -297.87063271 84.31567538 -300.015625 85.81640625 C-319.57999091 99.54592429 -344.92268234 117.55175907 -349.78515625 142.73828125 C-351.14227996 155.11674223 -351.14227996 155.11674223 -346 166 C-339.25785855 172.89537193 -329.7563953 176.13424467 -320.25 176.4375 C-313.89424257 176.16275544 -309.1412433 174.80059096 -304.25 170.6875 C-299.07132557 164.5018611 -295.65288771 158.8447176 -295.9375 150.5625 C-296.75530007 144.99004834 -299.8091835 141.57713239 -304 138 C-308.82210186 134.65000751 -313.05395666 133.21467352 -319 134 C-322.45645946 135.41400614 -323.76662994 136.65772391 -325.875 139.75 C-327.23750758 143.686133 -327.05817208 145.99406283 -326 150 C-324.83530663 151.78466602 -324.83530663 151.78466602 -323 153 C-320.48710325 153.36213568 -320.48710325 153.36213568 -317.8125 153.1875 C-316.91144531 153.16042969 -316.01039063 153.13335937 -315.08203125 153.10546875 C-314.39496094 153.07066406 -313.70789063 153.03585938 -313 153 C-312.8125 157.7734375 -312.8125 157.7734375 -314.5 159.8125 C-318.01641662 161.48279789 -321.21785881 161.53197747 -325 161 C-328.52638984 159.73582251 -330.45993665 158.60974894 -332.9375 155.8125 C-335.73365692 148.41090815 -331.69288767 139.01704383 -329 132 C-322.75768255 119.72471112 -308.91549653 107.16043277 -296 102 C-293.3125 102.25 -293.3125 102.25 -291 103 C-290.67 103.66 -290.34 104.32 -290 105 C-293.18914459 109.89761491 -296.29162224 114.52458284 -300.75 118.375 C-303.33488162 120.89769091 -303.33488162 120.89769091 -303.4375 124.6875 C-303.33204711 128.07357392 -303.33204711 128.07357392 -301 130 C-296.50048783 130.71992195 -293.72921624 130.18519241 -290.0625 127.625 C-284.12574019 122.7644949 -276.86265218 115.50281286 -275.62890625 107.6328125 C-275.51024554 103.15162576 -275.47740772 99.96493734 -278.375 96.375 C-280.65718683 93.77636223 -280.65718683 93.77636223 -283 94 C-275.24906841 85.73233963 -265.48978462 76.90493811 -254 75 C-257.3618226 79.25171681 -260.74828319 82.6381774 -265 86 C-264.505 88.475 -264.505 88.475 -264 91 C-256.45338478 91.608598 -251.27632538 90.3324223 -245 86 C-239.36302152 80.75409556 -239.36302152 80.75409556 -236.796875 73.79296875 C-236.64738003 66.89867651 -236.64738003 66.89867651 -240 61 C-257.80696332 52.09651834 -280.4299528 71.87987733 -293.59960938 81.28857422 Z M154 116 C149.26593943 122.35716705 148.25873002 127.2484339 149 135 C150.8028251 142.7760408 154.23073901 149.95812024 157.71313477 157.1003418 C160 161.80800744 160 161.80800744 160 164 C158.55367187 163.04287109 158.55367187 163.04287109 157.078125 162.06640625 C155.80227632 161.23147586 154.52622392 160.39685671 153.25 159.5625 C152.61578125 159.14162109 151.9815625 158.72074219 151.328125 158.28710938 C150.709375 157.88427734 150.090625 157.48144531 149.453125 157.06640625 C148.88754883 156.69459229 148.32197266 156.32277832 147.73925781 155.93969727 C143.65905183 153.73521765 139.56891107 153.68490268 135 154 C130.46982303 155.51005899 127.88959953 157.51313063 125.69140625 161.8359375 C124.05188552 166.96754475 123.98173261 172.54707336 126.05078125 177.53125 C128.73661809 180.93295117 131.91018184 182.71846241 135.625 184.875 C137.07501735 185.7504362 138.52295044 186.6293342 139.96875 187.51171875 C140.66484375 187.93630371 141.3609375 188.36088867 142.078125 188.79833984 C154.54263166 196.5918233 163.06306531 207.26923775 166.67578125 221.69921875 C167.85767166 230.08636879 166.66417107 235.79056105 162 243 C159.73061754 245.71065127 158.49378828 246.84230642 154.96484375 247.21484375 C148.55516983 246.96197497 144.48339046 244.41899706 140 240 C137.0943057 236.79748176 134.3394661 233.47655209 131.61328125 230.12109375 C126.02978397 223.35776572 120.74951617 219.14398579 111.92578125 217.6484375 C102.67567549 217.23565388 93.96397663 221.13922759 87 227 C81.03374629 233.20430873 78.87655552 240.80294382 78.5 249.25 C78.79327769 260.16503065 83.2208851 270.31692356 91 278 C98.76510087 284.04921715 105.35462112 284.33084413 115 284 C117.33564933 283.68330179 119.6693782 283.35179197 122 283 C133.5504399 282.02453099 144.38121435 285.63669116 153.34765625 292.90234375 C160.93138962 299.90368691 166.58366777 308.98206977 167.12939453 319.49194336 C167.13108643 320.77790405 167.13108643 320.77790405 167.1328125 322.08984375 C167.13410156 323.03923828 167.13539063 323.98863281 167.13671875 324.96679688 C167.13285156 325.94712891 167.12898437 326.92746094 167.125 327.9375 C167.12886719 328.91396484 167.13273438 329.89042969 167.13671875 330.89648438 C167.13016418 335.73048041 166.89952128 340.23741835 166 345 C165.88994043 346.91452455 165.82574337 348.83236031 165.8125 350.75 C165.79832031 351.69359375 165.78414062 352.6371875 165.76953125 353.609375 C165.76219207 356.186185 165.76219207 356.186185 168 358 C171.27235136 358.51331002 173.77261289 358.73985786 176.69702148 356.97705078 C181.71095509 352.76379638 184.70066606 348.05440312 187.875 342.375 C192.47069784 334.45377926 197.22905379 327.12881591 203 320 C203.83602183 318.92454471 204.67195584 317.84902116 205.5078125 316.7734375 C214.53014986 305.4038931 227.20461445 292.8800178 242 290 C247.5853551 289.53604079 252.61233569 289.67619574 257.9375 291.5 C263.53160169 293.37661558 269.14911358 293.84411657 275 293 C279.53891932 290.61448842 282.27704328 288.82641697 284.1875 284 C286.49563218 274.72835041 285.27985665 265.7971696 280.60546875 257.53515625 C279.57421863 255.84077314 278.53377789 254.15195068 277.484375 252.46875 C274.33693107 247.23405378 272.19717301 241.88883299 270.625 236 C268.38210342 228.20441892 263.86580279 221.39411378 257 217 C253.41230526 215.93147553 250.13923745 215.77770977 246.4375 216.5 C240.6409318 220.06711889 236.80093079 225.17252627 232.9375 230.6875 C226.78016857 239.29121839 226.78016857 239.29121839 221.0625 240.36328125 C217.34910101 240.60943459 215.118453 240.05363909 211.6875 238.5 C205.83257872 233.0535616 205.4007009 225.91275424 205.015625 218.28125 C204.96166082 206.94877115 209.1306163 194.37719758 216.94140625 185.890625 C218.09376568 184.96475522 219.26437125 184.06084371 220.45703125 183.1875 C223.352514 180.95907784 224.97195134 178.42682886 226 175 C226.85842893 167.19610061 226.76467267 160.85155421 221.78735352 154.43725586 C220.41894262 152.83304044 219.0053341 151.28747784 217.5625 149.75 C217.08490234 149.22148437 216.60730469 148.69296875 216.11523438 148.1484375 C212.17229785 143.88638815 209.79319311 142.22770706 204.0625 141.5 C200.6784149 141.63209254 200.02529562 141.98032563 197.1875 144.1875 C193.72926852 149.01266757 193.04361777 155.28131401 192 161 C191.34 161 190.68 161 190 161 C189.9175 159.72125 189.835 158.4425 189.75 157.125 C188.40190993 144.12424098 186.18909354 127.01973768 175.9375 117.875 C169.43696939 113.72572514 161.007661 111.52288325 154 116 Z M-387 167 C-388.27815313 171.2267252 -388.3952429 175.7291698 -388.75390625 180.1171875 C-388.81907944 180.89256866 -388.88425262 181.66794983 -388.95140076 182.46682739 C-389.08808408 184.10227823 -389.22331389 185.73785112 -389.35717773 187.37353516 C-389.56127547 189.86008139 -389.77152474 192.34605356 -389.98242188 194.83203125 C-390.11495467 196.42705252 -390.24712786 198.02210372 -390.37890625 199.6171875 C-390.44139053 200.35282928 -390.50387482 201.08847107 -390.56825256 201.84640503 C-390.92352418 206.24759306 -391.05759488 210.58439256 -391 215 C-391.56847656 214.73445313 -392.13695312 214.46890625 -392.72265625 214.1953125 C-401.73128238 210.07450522 -410.684219 206.70335236 -420.4375 210.25 C-423.05750304 212.03927037 -424.55104686 213.18259111 -426 216 C-426.04482062 217.99949771 -426.04909843 220.00060275 -426 222 C-424.27716797 222.23783203 -424.27716797 222.23783203 -422.51953125 222.48046875 C-408.49091827 224.53458271 -397.16562281 227.90556046 -385.55859375 236.42578125 C-382.93287997 238.34934992 -382.93287997 238.34934992 -379 238 C-378.82609741 236.16840332 -378.82609741 236.16840332 -378.64868164 234.29980469 C-378.21750975 229.76711832 -377.78233236 225.23482391 -377.34594727 220.70263672 C-377.15767995 218.7414783 -376.97049728 216.78021544 -376.78442383 214.81884766 C-376.5166922 211.99874119 -376.24505499 209.17903401 -375.97265625 206.359375 C-375.8491555 205.04510529 -375.8491555 205.04510529 -375.72315979 203.70428467 C-375.60314857 202.47346161 -375.60314857 202.47346161 -375.48071289 201.21777344 C-375.41187393 200.49829529 -375.34303497 199.77881714 -375.27210999 199.03753662 C-374.99590426 196.96933141 -374.5447307 195.01266843 -374 193 C-372.33025925 194.66367998 -370.66391665 196.33050909 -369 198 C-368.11183594 198.89074219 -367.22367187 199.78148437 -366.30859375 200.69921875 C-347.82732619 219.71366156 -335.68282872 243.44981247 -329 269 C-328.79068848 269.79873535 -328.58137695 270.5974707 -328.36572266 271.42041016 C-325.78028359 281.61528934 -323.97290614 291.87735351 -322.53125 302.2890625 C-322.40415649 303.19294205 -322.27706299 304.09682159 -322.14611816 305.02809143 C-321.50461296 309.60474464 -320.89001129 314.18239995 -320.31835938 318.76831055 C-320.08805641 320.46674507 -319.85697137 322.16507379 -319.625 323.86328125 C-319.53545044 324.65493683 -319.44590088 325.44659241 -319.3536377 326.26223755 C-319.05697136 328.7178649 -319.05697136 328.7178649 -318 332 C-314.39711124 334.25805029 -311.18866299 334.19482153 -307 334 C-307.98611927 340.6526255 -309.81061127 346.50993979 -312.52734375 352.65625 C-313.59657453 355.08399947 -314.60071319 357.50093351 -315.56640625 359.96875 C-319.78978512 370.53591801 -325.29877035 380.7585814 -336 386 C-337.72161555 386.40433033 -339.45354265 386.76622412 -341.19140625 387.09375 C-342.09189697 387.26583984 -342.9923877 387.43792969 -343.92016602 387.61523438 C-344.60651123 387.74220703 -345.29285645 387.86917969 -346 388 C-346.31114746 387.40687012 -346.62229492 386.81374023 -346.94287109 386.20263672 C-357.27570042 366.61007558 -367.82475794 348.33240068 -386 335 C-386.66902344 334.50371094 -387.33804688 334.00742187 -388.02734375 333.49609375 C-398.48945944 326.32879568 -410.95869803 325.69409027 -423.1875 327.6875 C-434.29825204 330.31237022 -442.64801049 336.34190471 -448.89453125 345.8984375 C-452.39887553 352.28340203 -454.17070189 357.72302346 -453 365 C-452.14939987 367.97980201 -452.14939987 367.97980201 -451 370 C-447.9190604 369.67928786 -446.40294119 369.42157944 -444.2265625 367.14453125 C-443.69804687 366.37496094 -443.16953125 365.60539063 -442.625 364.8125 C-436.54478736 356.55703887 -429.25513668 351.01678013 -419 349 C-405.96068379 347.89528015 -395.29373044 350.95626529 -385 359 C-384.26136719 359.56332031 -383.52273438 360.12664062 -382.76171875 360.70703125 C-370.35231378 370.88745847 -363.90489834 385.23452848 -358.0703125 399.7890625 C-353.02959019 412.30085537 -347.95075832 422.55879046 -337 431 C-337.64322014 434.90220217 -338.84652619 438.2344533 -340.375 441.875 C-345.69385802 455.4181038 -347.1790983 469.678779 -347.25 484.125 C-347.270625 485.18332031 -347.29125 486.24164063 -347.3125 487.33203125 C-347.34072631 492.95612287 -347.28770332 497.197298 -344 502 C-339.46436739 506.09313187 -337.06738526 507.13189968 -331 507 C-331.32788816 515.85298029 -335.57257319 521.88714473 -340.875 528.75 C-343.1703487 532.2605333 -343.58593006 533.89848961 -343 538 C-341.81094598 539.39426871 -341.81094598 539.39426871 -338.4375 539.4375 C-332.98985619 539.34004662 -329.73961877 536.77065295 -326 533 C-317.59236566 522.65512273 -312.62335318 509.28984047 -312.69921875 495.9375 C-313.05829078 493.62451651 -313.78367144 491.99426308 -315 490 C-317.7798816 488.6100592 -319.9186326 488.81511796 -323 489 C-324.34136367 489.65035814 -325.67532254 490.3162955 -327 491 C-329.6875 491.1875 -329.6875 491.1875 -332 491 C-334.15658026 488.84341974 -333.30945032 484.7296621 -333.3190918 481.83007812 C-333.02896811 465.55320367 -328.6966513 449.40973155 -322.53515625 434.44140625 C-318.89558954 426.36457247 -318.89558954 426.36457247 -320 418 C-322.88821024 415.37435433 -325.30515381 414.90539897 -329.0625 414.625 C-333 414 -333 414 -335.4375 411.5625 C-337 409 -337 409 -338 407 C-337.45472656 406.84144531 -336.90945313 406.68289063 -336.34765625 406.51953125 C-320.42342781 401.59254775 -311.24325404 391.90213463 -303.28662109 377.515625 C-299.30865129 369.73782597 -296.29408801 361.51116661 -293.24658203 353.3359375 C-291.97887224 349.9434607 -290.67619293 346.5657456 -289.37109375 343.1875 C-288.53678215 340.98002718 -287.70467675 338.771719 -286.875 336.5625 C-286.4843335 335.55131104 -286.09366699 334.54012207 -285.69116211 333.49829102 C-283.48815679 327.48422171 -281.66853148 321.43391643 -283 315 C-284.21810528 313.17466747 -284.21810528 313.17466747 -286 312 C-290.68217379 311.589283 -294.6868046 312.06649128 -299.27734375 313.01953125 C-300.16542725 313.20233643 -301.05351074 313.3851416 -301.96850586 313.57348633 C-302.63889893 313.71423584 -303.30929199 313.85498535 -304 314 C-304.09704224 312.87863647 -304.09704224 312.87863647 -304.19604492 311.73461914 C-306.20759648 289.10682245 -308.63409711 266.30161978 -317 245 C-317.46664062 243.77152344 -317.93328125 242.54304688 -318.4140625 241.27734375 C-327.1125264 219.40273734 -341.78818512 198.95275706 -358 182 C-358.71542969 181.22140625 -359.43085938 180.4428125 -360.16796875 179.640625 C-372.03170021 167.12399335 -372.03170021 167.12399335 -387 167 Z M-425 242 C-428.22799113 245.98517424 -429.34441519 250.89014127 -430.6875 255.75 C-430.93806152 256.64323975 -431.18862305 257.53647949 -431.44677734 258.45678711 C-436.38989818 276.40064471 -440.82301753 294.56741657 -444.5 312.8125 C-444.66000488 313.605354 -444.82000977 314.39820801 -444.98486328 315.21508789 C-445.63298378 318.5672152 -446 321.5693566 -446 325 C-442.50049486 324.40897246 -440.71219589 323.13977934 -438.125 320.75 C-435.75361594 318.58023159 -433.56747481 316.71291141 -430.875 314.92578125 C-426.64332954 311.40049987 -426.53966804 306.6355559 -425.875 301.4375 C-425.56616959 299.38115346 -425.25492077 297.32516885 -424.94140625 295.26953125 C-424.78945801 294.23006348 -424.63750977 293.1905957 -424.48095703 292.11962891 C-423.73168216 287.25961151 -422.78497401 282.44453173 -421.8125 277.625 C-421.56185791 276.3419397 -421.56185791 276.3419397 -421.30615234 275.03295898 C-420.12338485 269.12338485 -420.12338485 269.12338485 -419 268 C-411.02028759 282.89018296 -406.1865626 297.4195117 -403 314 C-401.92492187 314.14953125 -400.84984375 314.2990625 -399.7421875 314.453125 C-397.19365744 314.82556154 -394.65367201 315.26057961 -392.125 315.75 C-389.25655767 315.65693985 -388.19313665 315.16431587 -385.984375 313.28515625 C-383.45322822 310.31808975 -381.20431313 307.21134422 -379 304 C-378.42813965 303.1745166 -377.8562793 302.3490332 -377.26708984 301.49853516 C-374.11634449 296.92582268 -371.00361578 292.32780945 -367.94140625 287.6953125 C-367.42263916 286.91172363 -366.90387207 286.12813477 -366.36938477 285.32080078 C-364.96804969 282.94585138 -363.95538379 280.58293708 -363 278 C-362.34 278 -361.68 278 -361 278 C-360.690625 279.7325 -360.690625 279.7325 -360.375 281.5 C-359.38753126 286.0141428 -357.81325438 290.21210499 -356.125 294.5 C-348.07084356 315.28491984 -346.44085984 335.91931998 -348 358 C-348.07637695 359.1125415 -348.07637695 359.1125415 -348.15429688 360.24755859 C-348.40434063 363.83465885 -348.68237374 367.41825708 -349 371 C-347.68 371.33 -346.36 371.66 -345 372 C-336.98219702 364.16865756 -332.95406431 352.5557244 -332.796875 341.40625 C-332.40907529 307.81003191 -339.76182828 275.66678755 -357.9375 246.9375 C-359.91147001 244.72189859 -359.91147001 244.72189859 -363.0625 244.5 C-366.3792142 245.0645471 -366.96424678 245.44013687 -369 248 C-369.73238797 249.8080828 -370.38884072 251.64742344 -371 253.5 C-375.75101201 266.33203848 -383.25148857 278.29499834 -391.63671875 289.06640625 C-393.19207645 290.8781184 -393.19207645 290.8781184 -393 293 C-393.66 293 -394.32 293 -395 293 C-395.0928125 291.71609375 -395.185625 290.4321875 -395.28125 289.109375 C-395.87999141 283.7913871 -397.48240631 279.1832304 -399.5 274.25 C-399.85312256 273.37964111 -400.20624512 272.50928223 -400.57006836 271.61254883 C-404.83734638 261.49589082 -410.52703192 252.73107036 -418.6875 245.26953125 C-420 244 -420 244 -421 242 C-422.32 242 -423.64 242 -425 242 Z M-181 311 C-181.94875 311.90105469 -182.8975 312.80210937 -183.875 313.73046875 C-186.22782709 315.72514218 -186.22782709 315.72514218 -186 318 C-187.33333333 318.66666667 -188.66666667 319.33333333 -190 320 C-190.62390625 320.3609375 -191.2478125 320.721875 -191.890625 321.09375 C-194.33147206 322.14241022 -195.40679028 322.05402367 -198 321.625 C-216.33771821 319.42120894 -231.84576223 320.52849599 -247 332 C-251.19945817 335.46388429 -255.11898257 339.1860895 -259 343 C-259.64710938 343.61101562 -260.29421875 344.22203125 -260.9609375 344.8515625 C-275.68743555 359.99289149 -282.23201289 382.81300908 -286 403 C-286.226875 404.19367188 -286.45375 405.38734375 -286.6875 406.6171875 C-289.76626418 425.13253322 -289.53128789 445.14995408 -279.43359375 461.54296875 C-274.06701447 468.9764904 -267.15078432 474.32365332 -258 476 C-253.83711983 476.39509491 -249.67848609 476.55310425 -245.5 476.6875 C-244.39785156 476.73455078 -243.29570312 476.78160156 -242.16015625 476.83007812 C-236.62595789 477.03271084 -231.44574347 477.04063776 -226 476 C-225.66225668 473.77149723 -225.3299813 471.54216533 -225 469.3125 C-224.7215625 467.45044922 -224.7215625 467.45044922 -224.4375 465.55078125 C-224.07899589 462.64113629 -223.91057744 459.92299978 -224 457 C-229.09621191 457.50962119 -234.03660621 458.19764798 -239.0625 459.1875 C-247.53399871 460.56732744 -251.77112369 459.06300795 -258.8125 454.1875 C-264.79489259 449.82516295 -267.21438937 445.67348441 -268.63818359 438.52050781 C-272.3434108 412.70892506 -265.38909561 385.03458473 -250 364 C-242.62697723 354.47997963 -232.33048232 343.23394173 -220 341 C-211.4877123 340.18486985 -203.76654068 341.53150468 -195.4609375 343.3125 C-191.00479963 344.19769217 -187.51729035 344.58287617 -183 344 C-180.27127334 342.02409364 -180.27127334 342.02409364 -178 339 C-176.67892956 337.65451553 -175.34455293 336.32201852 -174 335 C-171.86190023 332.86587439 -169.7332417 330.72622174 -167.625 328.5625 C-166.75875 327.716875 -165.8925 326.87125 -165 326 C-164.34 325.35546875 -163.68 324.7109375 -163 324.046875 C-135.1539824 297.84963476 -101.1522356 288.73023933 -63.7578125 289.82275391 C-51.83147593 290.38528771 -39.90026226 292.04184277 -28.4375 295.44921875 C-25.52099452 296.10823681 -22.98009305 296.23559682 -20 296 C-17.85164036 293.75256794 -17.85164036 293.75256794 -16 291 C-15.0925 290.319375 -14.185 289.63875 -13.25 288.9375 C-12.13625 287.9784375 -12.13625 287.9784375 -11 287 C-11 285.68 -11 284.36 -11 283 C-20.55915505 278.64214991 -30.0356208 274.6725934 -40.25 272.125 C-41.00313477 271.93462158 -41.75626953 271.74424316 -42.53222656 271.5480957 C-54.97822682 268.6192358 -67.4918042 267.63280593 -80.25 267.6875 C-81.25531769 267.68973572 -81.25531769 267.68973572 -82.28094482 267.6920166 C-122.16124559 267.85062404 -152.68912853 283.80463841 -181 311 Z M-13.30859375 298.84765625 C-19.23269869 306.38618239 -20.97307245 314.53722294 -20 324 C-18.15410699 331.23072738 -14.10642915 335.87738539 -8 340 C8.81492845 349.8155436 29.38698657 351.62605567 48.1015625 347.1328125 C51.19626151 346.27528512 54.23029404 345.2666227 57.2734375 344.2421875 C66.94674035 341.02512242 75.85185625 338.34733787 86.125 338.375 C87.35887451 338.37753784 87.35887451 338.37753784 88.61767578 338.38012695 C93.11917634 338.53640938 96.44373112 338.96956076 100 342 C101.32131963 345.54756798 101.06718973 349.07765147 100.9921875 352.8203125 C100.97465157 354.17447142 100.95774521 355.52863861 100.94140625 356.8828125 C100.91066474 358.99568169 100.87537352 361.10812461 100.82861328 363.22070312 C100.60216233 374.03946114 100.75246161 384.30295393 108 393 C115.3780463 398.57117781 121.97004735 398.72999617 131 398 C134.05618578 397.09947503 136.43042732 395.86584549 139 394 C139.825 393.401875 140.65 392.80375 141.5 392.1875 C143.68491298 389.00116857 143.47170142 386.77361133 143 383 C142.04826062 380.47959573 142.04826062 380.47959573 140 379 C136.87376745 378.68099668 134.82883747 378.58558126 132 380 C126.15076661 380.46422487 126.15076661 380.46422487 124 380 C121.67283327 377.78265462 121.05127779 376.43280894 120.671875 373.23046875 C120.69765625 372.22628906 120.7234375 371.22210938 120.75 370.1875 C120.76546875 369.19105469 120.7809375 368.19460938 120.796875 367.16796875 C121 364 121 364 121.49609375 360.734375 C122.11348935 356.15894714 122.26060414 351.67431226 122.3125 347.0625 C122.34150391 346.20720703 122.37050781 345.35191406 122.40039062 344.47070312 C122.45992514 338.46687637 121.50529788 333.95427892 118 329 C108.20722537 319.52414365 93.62586469 318.09319053 80.625 317.75 C72.7276034 317.99518061 66.53483624 320.14462266 59.375 323.4375 C45.87951275 329.58794394 30.60581644 332.80148382 16.19921875 327.9296875 C12.75437669 326.473431 9.66720895 324.66720895 7 322 C6.45275109 317.98684131 6.64772505 316.46624626 9.125 313.1875 C12.23651429 310.82004348 14.14635352 310.26885906 18 310 C18.12117188 310.56589844 18.24234375 311.13179688 18.3671875 311.71484375 C18.53476562 312.44832031 18.70234375 313.18179687 18.875 313.9375 C19.03742188 314.66839844 19.19984375 315.39929688 19.3671875 316.15234375 C19.82961523 318.20700294 19.82961523 318.20700294 22 319 C26.76383201 319.58118751 30.14488114 319.45088085 34.4375 317.1875 C37.22622063 314.80688483 38.83650647 313.21099279 39.3359375 309.51171875 C39.39683555 305.10878974 39.3008111 301.73835452 37.625 297.625 C29.83699308 289.83699308 20.42748769 288.6875 9.92822266 288.6875 C0.03971217 288.86248269 -6.5307224 291.49469279 -13.30859375 298.84765625 Z M302 309.4375 C300.33522391 313.70348873 301.24301469 316.96062864 303 321 C305.99488364 325.90108479 309.49662914 330.45595994 313 335 C312.37996094 334.71125 311.75992188 334.4225 311.12109375 334.125 C299.62223702 329.30451858 288.41961366 329.77400169 276.7421875 333.87109375 C273.40414171 335.24530348 270.7537061 336.64927528 268 339 C267.44441406 339.46921875 266.88882813 339.9384375 266.31640625 340.421875 C262.76996524 343.86184088 261.58195382 346.47103996 261.4375 351.4375 C261.70828976 356.4644689 262.93198774 360.4331396 265 365 C258.46002135 367.41665182 252.85912199 368.90310899 246 367 C241.06741509 364.58206622 238.42996521 361.23658832 235.39453125 356.8046875 C233.48877401 354.33841342 231.79219108 353.11508181 228.6875 352.6640625 C221.35468161 352.55748084 215.65811734 353.97444526 209 357 C208.11570312 357.40089844 207.23140625 357.80179687 206.3203125 358.21484375 C198.76793717 361.99103142 192.78440398 367.18809009 186.49414062 372.71630859 C184.43715047 374.48357235 182.29050482 376.11850572 180.125 377.75 C174.27936612 382.25242757 168.52929926 386.85844916 166 394 C165.66534111 397.70940775 165.66534111 397.70940775 166 401 C167.10458978 402.29539764 167.10458978 402.29539764 169.8125 402.5 C178.55576483 402.35666779 186.75255898 394.61248766 193.16796875 389.31640625 C196.74671575 386.38923801 200.3887241 383.55652248 204.0625 380.75 C204.7112207 380.24251221 205.35994141 379.73502441 206.02832031 379.2121582 C210.5874653 375.74700193 215.42728561 372.54081858 221 371 C223.69395596 371.36737136 224.64355484 371.58088317 226.421875 373.671875 C226.86015625 374.35765625 227.2984375 375.0434375 227.75 375.75 C232.02309661 381.74092439 237.58208285 385.26028718 244.8125 386.71484375 C254.62458881 387.99391961 264.22067096 386.96637908 272.3125 380.75 C277.71385083 375.22303636 283.17121398 368.86911786 284.5 361.0625 C283.81033894 356.838326 281.68794961 354.24473918 279 351 C290.6458641 346.28268796 298.22633094 346.33160331 310 351 C315.31382015 353.75704488 320.22604905 356.66563449 323.9375 361.4375 C324.618125 362.283125 325.29875 363.12875 326 364 C327.32 364 328.64 364 330 364 C330.75195725 343.61360346 324.95436086 324.91162398 311.44921875 309.1953125 C309.92001202 307.72367132 309.92001202 307.72367132 307 307.5625 C304.00409779 307.76433336 304.00409779 307.76433336 302 309.4375 Z M-174 378 C-174.51304687 378.46825195 -175.02609375 378.93650391 -175.5546875 379.41894531 C-198.53422256 400.53205501 -215.48214946 429.39533873 -218 461 C-219.45413984 497.64657853 -212.67555156 530.33482195 -187.625 558.3125 C-168.73417828 578.6144039 -138.64911623 591.14838422 -111.16027832 592.30924988 C-95.5397187 592.8279279 -80.0283569 592.76181842 -65 588 C-64.31244629 587.78569336 -63.62489258 587.57138672 -62.91650391 587.35058594 C-32.37266005 577.51988988 -7.91844441 556.94344934 6.8828125 528.43359375 C11.42508593 519.33811629 14.66006206 509.88950755 17 500 C17.18763916 499.20932129 17.37527832 498.41864258 17.56860352 497.60400391 C19.29432614 489.38781314 19.35552266 481.2276439 19.3125 472.875 C19.31067719 472.1432254 19.30885437 471.41145081 19.30697632 470.65750122 C19.26150166 459.82638664 18.81077697 449.51774609 16 439 C15.83371094 438.34902344 15.66742188 437.69804687 15.49609375 437.02734375 C10.0857783 416.22768659 -0.45608492 399.73724483 -16 385 C-16.86625 384.113125 -17.7325 383.22625 -18.625 382.3125 C-41.19630493 360.33517678 -71.48576598 351.45309322 -102.3293457 351.64624023 C-128.0809977 352.17477827 -154.85514563 360.02101817 -174 378 Z M-446.15405273 383.96240234 C-449.63297178 387.4971822 -451.14478976 389.2688762 -451.16796875 394.20703125 C-451.09269987 401.09351702 -450.20961361 407.86716328 -449.3125 414.6875 C-449.22352448 415.36740997 -449.13454895 416.04731995 -449.0428772 416.74783325 C-447.37954079 429.33199843 -445.15309898 441.69841261 -442 454 C-441.74879395 454.9801709 -441.49758789 455.9603418 -441.23876953 456.97021484 C-430.56117321 497.69939272 -409.10006583 542.3677161 -372.15625 565.328125 C-367.83488524 567.61716475 -364.27406623 568.95606668 -359.375 569.125 C-355.74803638 568.28573345 -355.74803638 568.28573345 -353.82714844 564.9309082 C-350.80279274 558.36919815 -351.39450684 551.05574476 -351.390625 543.98046875 C-351.37559012 542.39746964 -351.35885221 540.81448591 -351.34051514 539.23152161 C-351.29691173 535.06130291 -351.27689684 530.89129231 -351.26177979 526.72088623 C-351.24250756 522.57615882 -351.20021832 518.43167839 -351.16015625 514.28710938 C-351.08042477 505.58017482 -351.03788912 496.87335477 -351.00813293 488.16612244 C-351.0002934 486.0781429 -350.99029095 483.99018716 -350.97937012 481.90222168 C-350.96096231 478.23559549 -350.94807117 474.56899991 -350.9375 470.90234375 C-350.93212219 469.86732224 -350.92674438 468.83230072 -350.92120361 467.76591492 C-350.88728445 436.63148099 -356.18969269 403.94833192 -378.40625 380.32421875 C-402.0390785 359.14721129 -425.46542355 363.32772417 -446.15405273 383.96240234 Z M282 403 C281.36284048 405.36787232 281.36284048 405.36787232 282 408 C283.83784759 409.88245554 285.58311886 411.43823545 287.625 413.0625 C295.81066369 420.05787076 300.94241002 429.13235119 302 440 C302.23193222 445.94247949 301.5639732 451.20231085 300.3125 457 C300.13388428 457.86101318 299.95526855 458.72202637 299.77124023 459.60913086 C299.18897305 462.40786676 298.59547443 465.20404651 298 468 C297.18426384 471.8534898 296.37223424 475.70774472 295.5625 479.5625 C295.35568604 480.54299316 295.14887207 481.52348633 294.93579102 482.53369141 C292.99899599 491.80737276 291.27989728 501.11820899 289.61157227 510.44360352 C289.41490967 511.53213623 289.21824707 512.62066895 289.015625 513.7421875 C288.75700684 515.19407471 288.75700684 515.19407471 288.49316406 516.67529297 C288 519 288 519 287 521 C286.960008 522.99960012 286.95653201 525.00047242 287 527 C289.34573861 527.83776379 290.62787631 528.11411556 293.03808594 527.375 C295.83634928 525.41384779 295.93585326 523.68240043 296.640625 520.375 C296.90238525 519.20630371 297.16414551 518.03760742 297.43383789 516.83349609 C297.70317139 515.56844238 297.97250488 514.30338867 298.25 513 C298.84562489 510.34343763 299.45764645 507.6908343 300.07421875 505.0390625 C300.23019028 504.3650943 300.3861618 503.6911261 300.54685974 502.99673462 C302.1039205 496.36900056 304.02358395 489.87008359 306.0625 483.375 C306.56402588 481.77470947 306.56402588 481.77470947 307.07568359 480.14208984 C308.61360634 475.27864416 310.18526506 470.42664152 311.76953125 465.578125 C316.70477529 450.41695001 321.08713787 435.68601673 314.22265625 420.30859375 C310.11586009 412.55422783 304.15117236 406.11781485 296.625 401.5625 C291.82079204 400.53302687 285.65684099 399.34315901 282 403 Z M201 428 C200.0925 428.86625 199.185 429.7325 198.25 430.625 C197.5075 431.40875 196.765 432.1925 196 433 C195.566875 433.44988281 195.13375 433.89976562 194.6875 434.36328125 C169.32667193 462.1361446 161.94942211 500.67681225 162.86376953 537.05761719 C163.72171117 555.58792665 169.69581115 572.44502468 183.375 585.375 C193.69357036 594.08408798 203.84966755 595.90960798 217 595 C233.44558452 591.7344892 245.55162168 580.65730429 254.69140625 567.14331055 C275.92215624 534.87498315 287.55056791 495.01032307 281.37890625 456.23828125 C278.44608482 443.97257031 272.29824871 430.70384012 263 422 C262.43539062 421.45085937 261.87078125 420.90171875 261.2890625 420.3359375 C252.89142224 412.62226794 244.57143125 410.67127353 233.34765625 410.78515625 C219.95751796 411.64450001 210.35451347 419.00780924 201 428 Z M55.5625 478.3125 C54.65169678 478.43012695 53.74089355 478.54775391 52.80249023 478.66894531 C44.10375126 479.84679034 44.10375126 479.84679034 36 483 C32.75760958 488.13166217 32.71012066 493.29331444 33.578125 499.15234375 C33.94169803 501.08080649 33.94169803 501.08080649 35 503 C35.63164063 502.87882812 36.26328125 502.75765625 36.9140625 502.6328125 C39.93902087 502.06617765 42.968576 501.53094764 46 501 C47.03769531 500.80921875 48.07539062 500.6184375 49.14453125 500.421875 C56.23479981 499.24436895 63.13250072 498.79384935 70.3125 498.75 C71.13613037 498.74081543 71.95976074 498.73163086 72.80834961 498.72216797 C79.52949439 498.75593239 86.02263804 499.38726227 92 502.625 C95.54216227 506.83131769 95.04374678 511.64384991 94.875 516.875 C94.91625 517.90625 94.9575 518.9375 95 520 C98.04603098 522.03068732 99.99140584 522.70673526 103.64453125 522.66015625 C106.92144196 521.74175176 108.68103391 519.90460347 111.1875 517.625 C117.17176174 512.39083168 122.11043274 511.00900636 130 511 C136.33945992 511.46306755 142.34120232 511.9761192 148 515 C150.58462162 515.41717279 150.58462162 515.41717279 153 515 C155.84701905 510.72947143 155.48951706 507.00751877 155 502 C153.66418117 498.15952085 151.83016382 496.70526903 148.375 494.8125 C136.21766809 489.36266156 123.48644 489.79614846 111 494 C110.484375 492.96875 109.96875 491.9375 109.4375 490.875 C105.3984268 483.92272766 100.30532022 480.62726618 92.625 478.54296875 C80.209004 475.9747791 68.03253609 476.66145168 55.5625 478.3125 Z M-283 504 C-295.89249284 522.56765716 -292.52312746 549.1062762 -288.80859375 570.01953125 C-283.23882147 599.24853066 -276.57748835 631.55473265 -251.390625 650.40625 C-244.13829715 655.24113523 -236.67282559 656.17014314 -228 655 C-225.65052848 653.6003431 -225.65052848 653.6003431 -224 652 C-224.45391128 647.36362045 -225.97197933 645.69001722 -229.5 642.75 C-230.40363281 641.96882812 -231.30726563 641.18765625 -232.23828125 640.3828125 C-233.14964844 639.59648438 -234.06101563 638.81015625 -235 638 C-241.62948447 631.98098502 -246.5970346 625.80012518 -251 618 C-251.56332031 617.0203125 -252.12664062 616.040625 -252.70703125 615.03125 C-265.43182129 591.36256604 -279.14682524 552.41289961 -271.8125 525.4375 C-269.77610338 519.785072 -267.16784925 515.49340726 -262.1875 512.0625 C-253.90585085 509.30195028 -246.8083501 511.73087464 -239 515 C-237.14453125 516.15625 -237.14453125 516.15625 -235.6875 517.25 C-232.25767502 519.4833744 -230.01628129 519.38618089 -226 519 C-225.01 518.505 -225.01 518.505 -224 518 C-223.57431087 510.33759566 -224.45109172 503.23780241 -229.3125 497.0625 C-245.61186504 484.55368497 -270.08100847 489.42590635 -283 504 Z M-251 559 C-252.3392359 579.75815651 -246.1359039 598.98571078 -233 615 C-232.43539062 615.72703125 -231.87078125 616.4540625 -231.2890625 617.203125 C-220.82430902 630.07526308 -205.50749585 635.74268514 -190 640 C-189.34 640 -188.68 640 -188 640 C-195.44967245 655.30615295 -205.65860612 669.43907074 -220 679 C-220 680.32 -220 681.64 -220 683 C-218.14856606 683.6536261 -216.29369242 684.29751218 -214.4375 684.9375 C-213.40496094 685.29714844 -212.37242187 685.65679688 -211.30859375 686.02734375 C-204.9781529 687.88835883 -198.71035015 688.1767186 -192.1640625 688.23828125 C-191.32644379 688.246353 -190.48882507 688.25442474 -189.62582397 688.26274109 C-187.85587589 688.27651313 -186.08590201 688.28726574 -184.31591797 688.29516602 C-182.53979475 688.3066072 -180.76370374 688.32693201 -178.98779297 688.35668945 C-158.6442308 688.69644478 -141.1456654 684.42459578 -123 675 C-122.37657715 674.67999023 -121.7531543 674.35998047 -121.11083984 674.03027344 C-117.08354814 671.86299346 -113.97612545 669.475848 -111 666 C-110.33278464 662.91440699 -110.33278464 662.91440699 -111 660 C-112.58954724 657.89384991 -113.47875565 657.09919202 -116.09375 656.6015625 C-125.53405443 656.69351352 -133.69648818 659.54928421 -142.55322266 662.56396484 C-156.16158455 667.18035659 -169.38342205 671.53543861 -184 670 C-185.485 669.01 -185.485 669.01 -187 668 C-186.50371094 667.36835937 -186.00742187 666.73671875 -185.49609375 666.0859375 C-177.65370132 655.75838466 -168.45304745 642.48058648 -170 629 C-173.81117818 625.93511716 -177.85597323 625.31647491 -182.5625 624.625 C-197.2911086 622.10306998 -210.09451272 615.85344919 -219.375 603.75 C-228.76389825 589.69593194 -231.47091338 575.0965214 -233.5703125 558.6328125 C-233.72358038 556.0817605 -233.72358038 556.0817605 -235 555 C-241.19917336 554.40304257 -246.35409534 554.35409534 -251 559 Z M281.3359375 557.16796875 C278.36634776 561.24030088 279.61318199 567.21932617 280 572 C280.46414841 574.48612824 280.96591556 576.96545203 281.5 579.4375 C285.73068295 599.39517977 283.44437546 618.44589907 273 636 C266.24976433 645.59317725 257.49778577 651.07624295 246.0703125 653.53125 C232.18393265 655.65130799 218.82451254 652.61118048 207 645 C204.27501054 642.60200928 201.76464852 640.19544462 200 637 C200.495 635.515 200.495 635.515 201 634 C203.1796875 633.2265625 203.1796875 633.2265625 205.875 632.625 C209.96642932 631.51237783 209.96642932 631.51237783 213.125 628.75 C214.22643844 625.28833634 214.4011879 622.61069107 214 619 C212.91649512 617.20696351 212.91649512 617.20696351 211 616 C204.50386787 614.82468297 198.41325768 615.23688085 192.625 618.5 C183.6381079 624.73727938 177.96510575 634.02931008 172 643 C171.27683594 644.02673828 171.27683594 644.02673828 170.5390625 645.07421875 C167.57764026 649.57936109 167.19503966 653.78788178 168 659 C168.84520133 661.65844217 168.84520133 661.65844217 171 663 C174.32594755 664.00234186 174.32594755 664.00234186 178 663 C182.20304147 659.4256922 185.41984449 654.85676331 188 650 C191.01601787 651.31549716 192.66651709 652.56217168 194.625 655.1875 C203.37523509 665.73602902 217.63237073 672.06050022 231 674 C241.87722513 674.91612992 251.94637827 674.66720644 262 670 C263.19302734 669.45666016 263.19302734 669.45666016 264.41015625 668.90234375 C278.67517349 661.68419609 288.69187633 647.84707653 294 633 C301.15730647 609.56285406 301.88882621 581.97697854 292 559 C289.92928617 556.37784608 289.42114641 556.0526433 286 555.625 C283.07621591 555.75254578 283.07621591 555.75254578 281.3359375 557.16796875 Z M87.79077148 565.72558594 C84.95211863 569.33088792 82.6192962 573.16475464 80.3125 577.125 C79.80195068 577.99116943 79.29140137 578.85733887 78.76538086 579.74975586 C48.74454012 626.19051392 48.74454012 626.19051392 40.4609375 678.515625 C42.63982285 685.02664711 46.91470929 690.20492871 52.9375 693.4375 C63.62630529 697.55546519 74.3182927 695.12255501 84.66015625 691.484375 C88.09377162 690.08666055 88.09377162 690.08666055 91.18359375 687.765625 C94 686 94 686 96.140625 686.01171875 C98.51385608 687.27312098 99.95506685 688.81359718 101.75 690.8125 C107.11796314 696.31886366 111.64737406 699.13935945 119.4375 699.5625 C125.99260004 699.28974965 130.80316132 697.00502836 135.5625 692.53125 C145.0815218 680.97243782 142.86301398 662.15371176 141.78759766 648.25488281 C139.28978891 623.82276448 129.52297134 599.42522312 120.625 576.6875 C120.05531494 575.21434326 120.05531494 575.21434326 119.47412109 573.71142578 C115.53998097 563.90851407 115.53998097 563.90851407 108 557 C98.85700702 556.38013607 93.70248914 558.78788059 87.79077148 565.72558594 Z M-346 580 C-351.78270142 589.30458243 -353.18030658 596.94772605 -353.1875 607.6875 C-353.19974609 608.63044922 -353.21199219 609.57339844 -353.22460938 610.54492188 C-353.24383471 619.86920802 -351.97111106 627.92972663 -347.6875 636.25 C-347.11386719 637.38953125 -346.54023438 638.5290625 -345.94921875 639.703125 C-340.74729683 648.50156608 -332.88809214 655.27241156 -323.08203125 658.5078125 C-318.03044392 659.70199637 -312.97829312 660.65943104 -308 659 C-308.07558706 657.13475825 -308.07558706 657.13475825 -309 655 C-311.55729668 652.81981517 -311.55729668 652.81981517 -314.6875 650.75 C-324.49997657 643.73778208 -330.37224132 634.55137805 -332.68359375 622.640625 C-334.21937865 609.82345721 -333.40084789 597.83312757 -325.7578125 587.13671875 C-323.26224608 584.10321912 -320.51729452 581.39315264 -317.63671875 578.7265625 C-314.83181374 575.76768896 -314.84115979 572.82949881 -314.8125 568.9375 C-314.79832031 568.05964844 -314.78414062 567.18179688 -314.76953125 566.27734375 C-314.77770564 563.80074945 -314.77770564 563.80074945 -317 562 C-328.5379907 559.79059753 -339.36044661 571.94597895 -346 580 Z M-10 584 C-12.10827055 587.16240582 -12.33817465 588.50657469 -12.625 592.1875 C-12.69976562 593.08855469 -12.77453125 593.98960937 -12.8515625 594.91796875 C-12.90054688 595.60503906 -12.94953125 596.29210937 -13 597 C-12.40832031 597.29132812 -11.81664062 597.58265625 -11.20703125 597.8828125 C-4.89499754 601.15724434 -1.2891811 604.1500136 2.375 610.3125 C3.64622912 615.77878522 2.82395614 620.46573685 0.1875 625.375 C-2.34883326 628.41859992 -4.32689514 630.65855003 -8.296875 631.46875 C-14.83928504 631.5520928 -18.90877396 630.11790341 -24 626 C-24.66 625.34 -25.32 624.68 -26 624 C-25.625 621.375 -25.625 621.375 -25 619 C-22 618 -22 618 -19.1875 619 C-15.5854133 620.13006641 -13.59840347 620.06316466 -10 619 C-7.51749715 615.27624573 -7.59007699 612.30855244 -8 608 C-8.83400156 605.19472204 -9.73496143 604.23084004 -11.9375 602.3125 C-20.45062137 598.66401941 -29.71262941 599.69463078 -38.2265625 602.81640625 C-42.73054007 604.83223142 -47.0186206 607.29195171 -49 612 C-50.17277168 619.28656504 -49.69137358 625.70382044 -45.60546875 631.94140625 C-39.37096524 639.93552633 -32.64773586 644.78408805 -23 648 C-19.65049617 648.25583527 -16.29575209 648.2314076 -12.9375 648.25 C-12.03322266 648.270625 -11.12894531 648.29125 -10.19726562 648.3125 C1.00324041 648.37654864 9.4882806 645.40997378 17.5 637.5234375 C22.92060481 631.4897881 24.54957732 625.47482511 24.4375 617.625 C24.42505249 616.50073608 24.42505249 616.50073608 24.41235352 615.35375977 C24.14033401 606.4390706 21.11277273 600.37835836 15.05859375 593.85546875 C8.88862298 588.29429965 1.55867871 584.37988989 -6.75 583.6875 C-7.8225 583.790625 -8.895 583.89375 -10 584 Z M-126.75 704.67578125 C-130.57003849 708.96414176 -133.28250424 712.65333573 -133.3125 718.5625 C-133.32925781 719.32691406 -133.34601563 720.09132813 -133.36328125 720.87890625 C-132.91147142 723.51689271 -132.11710385 724.40708292 -130 726 C-125.75240545 726 -123.6746122 723.98928963 -120.58984375 721.2734375 C-115.58567217 717.26518213 -109.2924061 715.85194339 -103 716 C-95.93055587 717.13207453 -90.64193791 720.62832513 -86 726 C-81.31341699 732.87524107 -80.04299153 739.84570255 -79 748 C-74.38 748 -69.76 748 -65 748 C-61.62393002 739.65912124 -62.60970071 729.95695039 -65.6875 721.625 C-70.30021236 711.55940268 -77.658963 704.15579179 -87.8125 699.625 C-99.87419248 695.2999418 -116.96008733 695.30106577 -126.75 704.67578125 Z M-170 703 C-171.77501547 706.05080784 -172.37412512 707.66381476 -173 711 C-173.29970703 712.26263672 -173.29970703 712.26263672 -173.60546875 713.55078125 C-176.39153904 726.47141593 -176.5222503 742.46832853 -169.3125 754 C-162.59702825 762.77796308 -153.33873485 769.31289932 -142.42578125 771.73046875 C-136.6536684 772.37181462 -130.79789696 772.13588821 -125 772 C-129.38895958 803.15090821 -129.38895958 803.15090821 -137 809 C-141.71515946 808.91580072 -144.44132654 808.03146258 -148 805 C-148.66 805 -149.32 805 -150 805 C-152.73361096 799.14226224 -154.08976166 792.69284994 -153.875 786.25 C-154.0343819 782.10607066 -155.4241901 780.18188282 -158 777 C-161.01324195 775.49337903 -163.68286377 775.82229627 -167 776 C-172.33079006 781.33079006 -171.36627439 790.91774671 -171.375 797.9375 C-171.39949219 798.97068359 -171.42398437 800.00386719 -171.44921875 801.06835938 C-171.47914531 808.94403118 -170.15320187 815.09161953 -165.140625 821.3046875 C-155.22066547 829.54399273 -146.39038208 829.65744885 -134 829 C-132.66029764 828.69326483 -131.32457544 828.36659076 -130 828 C-129.62488281 828.79664063 -129.24976563 829.59328125 -128.86328125 830.4140625 C-124.05336547 840.37313244 -120.19122175 846.20974409 -110 851 C-101.60931347 853.79689551 -92.57663301 852.52422879 -84.6953125 848.875 C-84.13585937 848.58625 -83.57640625 848.2975 -83 848 C-82.84144531 848.76183594 -82.68289063 849.52367187 -82.51953125 850.30859375 C-80.24140841 860.39023127 -76.61107539 869.82153961 -68.0625 876.1875 C-59.22539451 881.41762366 -49.44830925 882.25759063 -39.51953125 879.91015625 C-34.30728914 878.0272843 -29.66498963 874.95212542 -25 872 C-24.6596875 872.70125 -24.319375 873.4025 -23.96875 874.125 C-19.08415681 883.68633136 -13.31191328 891.16552805 -3 895 C5.41025076 897.5998493 15.04826723 896.55316256 23 893 C26.78572419 890.82983964 30.41569775 888.48720593 34 886 C34.69480469 886.6496875 35.38960937 887.299375 36.10546875 887.96875 C41.03322542 891.42682485 46.20340495 890.68153905 52 890 C60.32683491 887.68926913 65.96542706 880.64563629 71 874 C71.474375 874.474375 71.94875 874.94875 72.4375 875.4375 C76.17351901 877.71556037 79.6576188 878.10356616 84 878 C94.33445899 875.04729743 101.80066266 867.11442589 107 858 C110.5927443 850.94131415 113.04505077 844.40954178 114.1875 836.5625 C114.93436763 832.54640937 115.30237595 830.62087395 118.37890625 827.8828125 C120.29536318 826.75119031 122.23923549 825.6647864 124.20703125 824.625 C132.51893849 819.78898124 136.17684001 810.54580333 138.6484375 801.671875 C141.71257261 788.26073291 143.21319334 771.46780251 136.75 758.875 C133.10489882 753.19890403 128.73125256 749.48087556 122 748 C114.56092431 747.40007454 109.54019926 749.26602485 102.9375 752.5 C94.01632725 760.09248744 89.72559764 772.53003952 85 783 C84.67 783 84.34 783 84 783 C83.78085937 782.03320312 83.56171875 781.06640625 83.3359375 780.0703125 C81.36460636 771.81748763 78.97442814 765.00508511 74 758 C73.401875 757.0925 72.80375 756.185 72.1875 755.25 C65.51647682 748.38837616 58.57276901 745.44941686 49.125 744.6875 C40.34100501 744.98029983 33.47562258 748.23682313 27 754 C26.29230469 754.61488281 25.58460938 755.22976563 24.85546875 755.86328125 C17.62943206 762.58311572 11.42311894 771.15376211 7 780 C6.82984375 778.82824219 6.6596875 777.65648437 6.484375 776.44921875 C5.14818142 767.62526337 3.7996585 759.15694606 0 751 C-0.40863281 750.11699219 -0.81726563 749.23398437 -1.23828125 748.32421875 C-4.73887347 741.66816312 -9.08885905 737.96817622 -16 735 C-24.99734023 732.73669392 -32.83461152 733.61948004 -41 738 C-56.93909616 747.59506497 -64.01098826 761.8811303 -72 778 C-72.6662681 779.33353254 -73.3328013 780.66693282 -74 782 C-84.33480736 781.79330385 -94.63666798 776.05044256 -102 769 C-105.98930159 763.4776547 -105.48078956 757.30239938 -105.5625 750.75 C-105.59683535 748.57797136 -105.63938205 746.40605196 -105.69140625 744.234375 C-105.70989624 742.79916504 -105.70989624 742.79916504 -105.72875977 741.33496094 C-105.7773666 738.8087725 -105.7773666 738.8087725 -108 737 C-110.82739532 736.64198729 -110.82739532 736.64198729 -114 736.6875 C-115.60875 736.66236328 -115.60875 736.66236328 -117.25 736.63671875 C-118.1575 736.75660156 -119.065 736.87648438 -120 737 C-122.11044382 740.16566573 -122.75552077 742.51197415 -123.625 746.1875 C-123.88539063 747.27417969 -124.14578125 748.36085938 -124.4140625 749.48046875 C-124.60742188 750.31191406 -124.80078125 751.14335938 -125 752 C-133.97527267 752.79780202 -141.83371534 749.14502488 -149 744 C-149.66 744 -150.32 744 -151 744 C-151.66666667 742.33333333 -152.33333333 740.66666667 -153 739 C-153.34933594 738.29101562 -153.69867188 737.58203125 -154.05859375 736.8515625 C-155.30559137 733.0743498 -155.25363651 729.49200715 -155.1875 725.5625 C-155.18177979 724.77496338 -155.17605957 723.98742676 -155.17016602 723.17602539 C-155.09387845 716.93116334 -154.69813471 710.74656298 -154.12109375 704.52734375 C-154.08113281 703.69332031 -154.04117187 702.85929688 -154 702 C-155.02897871 700.74537133 -155.02897871 700.74537133 -157.2421875 700.90625 C-161.68906687 701.0574187 -165.85112559 701.272507 -170 703 Z M157.83203125 741.59375 C155.92175599 745.14547714 155.11516789 747.91128216 154.4375 751.875 C154.3230957 752.53830322 154.20869141 753.20160645 154.09082031 753.88500977 C152.98666776 760.54508441 152.11671957 767.24314678 151.25 773.9375 C151.11005615 775.0104834 150.9701123 776.0834668 150.82592773 777.18896484 C150.70290283 778.18750488 150.57987793 779.18604492 150.453125 780.21484375 C150.34129883 781.11323975 150.22947266 782.01163574 150.11425781 782.93725586 C150.07655273 783.61796143 150.03884766 784.29866699 150 785 C150.33 785.33 150.66 785.66 151 786 C154.28119893 786 156.87088087 785.79174378 159.62109375 783.86328125 C167.58648865 775.64961431 170.13225031 762.54993832 170.1875 751.5 C170.20876953 749.56640625 170.20876953 749.56640625 170.23046875 747.59375 C170.0146557 744.22852954 169.46189261 742.00468046 168 739 C166.7625 738.87625 165.525 738.7525 164.25 738.625 C163.55390625 738.55539062 162.8578125 738.48578125 162.140625 738.4140625 C159.6937982 738.86493672 159.6937982 738.86493672 157.83203125 741.59375 Z " fill="#000000" transform="translate(480,13)"/>
<path d="M0 0 C9.30692508 5.77029355 11.62018826 16.36196019 14.203125 26.38671875 C16.53712857 36.96982318 17.26572479 46.82487664 13 57 C8.5946477 61.4053523 0.81223023 61.15722997 -5.125 61.3125 C-17.37365171 61.09532532 -29.68558457 58.87627695 -40 52 C-42.62675995 44.64507213 -38.46434818 35.37519013 -35.48828125 28.515625 C-29.85446967 17.53691525 -21.86024853 5.74262427 -10.5 0.0625 C-6.37194488 -1.19065959 -4.13925055 -1.20414562 0 0 Z " fill="#000000" transform="translate(534,775)"/>
<path d="M0 0 C6.48185576 3.49023002 9.86862562 7.80247635 12.36938477 14.68994141 C13.48953378 18.7932515 13.44079782 22.83391914 13.375 27.0625 C13.36847412 27.97555908 13.36194824 28.88861816 13.35522461 29.8293457 C13.19530407 38.01828142 12.72265516 47.55468967 9 55 C-4.07817099 53.4995934 -20.6798608 51.00640225 -30 40.8125 C-33.07859813 32.15394277 -30.39677129 23.19838009 -27 15 C-21.47975067 5.35506999 -11.7241477 -3.51008088 0 0 Z " fill="#000000" transform="translate(458,765)"/>
<path d="M0 0 C0.53141602 0.19110352 1.06283203 0.38220703 1.61035156 0.57910156 C14.60497052 5.20373897 27.40979758 8.64981462 41 11 C42.39243106 15.17729317 40.88170932 18.09328139 39.4375 22.0625 C39.16083496 22.82675293 38.88416992 23.59100586 38.59912109 24.37841797 C34.31459091 35.85162672 28.73745631 44.77624189 17.5625 50.5 C12.83709724 52.3901611 8.87052435 52.40601929 4 51 C-1.64884882 48.33544867 -3.8527293 44.63796204 -6 39 C-9.87899178 26.27690697 -5.26649015 11.66474752 0 0 Z " fill="#000000" transform="translate(420,825)"/>
<path d="M0 0 C7.11711024 1.53478305 14.13250884 3.32743125 21.15820312 5.23242188 C25.42368054 6.37379053 29.62127645 7.37042585 34 8 C34.34221708 19.81965141 31.70398615 32.68949541 24 42 C19.27344008 46.3242995 14.68179237 48.45546579 8.19140625 48.3359375 C3.38391338 47.59895998 -0.18905578 45.01950802 -3.390625 41.44921875 C-8.09856025 33.97288495 -6.97513554 23.07382247 -5.1640625 14.76953125 C-3.89230516 9.62419255 -2.43861527 4.7189949 0 0 Z " fill="#000000" transform="translate(478,844)"/>
<path d="M0 0 C3.87019973 2.6876387 5.30884695 6.07084837 6.25 10.5625 C6.961747 22.44050728 6.60677606 31.4827389 0.25 41.8125 C-4.23087104 46.7428628 -12.21899684 50.44140964 -18.75 51.5625 C-20.49886981 51.62874507 -22.25002748 51.64802595 -24 51.625 C-24.89203125 51.61597656 -25.7840625 51.60695313 -26.703125 51.59765625 C-27.37859375 51.58605469 -28.0540625 51.57445312 -28.75 51.5625 C-30.66175995 47.7389801 -27.86471829 43.16049649 -26.57617188 39.25976562 C-26.34728271 38.57954346 -26.11839355 37.89932129 -25.88256836 37.19848633 C-25.20202743 35.16833736 -24.54065947 33.13267152 -23.88085938 31.09570312 C-16.10944254 7.54368649 -16.10944254 7.54368649 -6.3125 1.125 C-2.75 -0.4375 -2.75 -0.4375 0 0 Z " fill="#000000" transform="translate(600.75,779.4375)"/>
<path d="M0 0 C0.639375 0.391875 1.27875 0.78375 1.9375 1.1875 C2.948125 1.785625 3.95875 2.38375 5 3 C5.62003906 3.37511719 6.24007813 3.75023437 6.87890625 4.13671875 C12.72313014 7.54854006 18.62250575 9.78235567 25.0625 11.8125 C26.02349609 12.12380859 26.98449219 12.43511719 27.97460938 12.75585938 C30.31384606 13.51232895 32.65545724 14.26017506 35 15 C32.5904753 25.45432095 28.63262523 37.62849701 19.25 43.8125 C15.30517265 45.25387922 12.14625942 45.73803418 8 45 C2.27813098 42.13906549 -0.70531852 38.18797913 -3.08984375 32.31640625 C-4.15371294 28.43990436 -4.34164095 24.80077502 -4.3125 20.8125 C-4.31048584 20.06871094 -4.30847168 19.32492187 -4.30639648 18.55859375 C-4.04429793 4.04429793 -4.04429793 4.04429793 0 0 Z " fill="#000000" transform="translate(368,801)"/>
<path d="M0 0 C0.55433523 11.57944708 -0.53731882 22.67164852 -8 32 C-9.9375 34.0625 -9.9375 34.0625 -12 35 C-15.67293796 34.77962372 -17.36966546 34.63033454 -20 32 C-20.45394337 24.91422767 -19.35924054 18.37605559 -18 11.4375 C-17.80921875 10.42880859 -17.6184375 9.42011719 -17.421875 8.38085938 C-16.95518789 5.91908485 -16.48111337 3.45898836 -16 1 C-10.57948029 0.27688445 -5.46773928 -0.0976382 0 0 Z " fill="#000000" transform="translate(544,852)"/>
<path d="M0 0 C-1.46577144 10.28227728 -5.12354221 19.89342154 -13 27 C-16.375 28.9375 -16.375 28.9375 -19 30 C-21.81812561 27.72731806 -22.90412827 26.42100196 -23.71875 22.84375 C-24.02991965 18.59109811 -23.5118606 15.17908918 -22.5625 11.0625 C-22.41490234 10.37865234 -22.26730469 9.69480469 -22.11523438 8.99023438 C-21.75412706 7.32448128 -21.37857288 5.66187077 -21 4 C-16.57143431 2.67421555 -12.26082796 1.60719736 -7.6875 0.875 C-6.14642578 0.62363281 -6.14642578 0.62363281 -4.57421875 0.3671875 C-2 0 -2 0 0 0 Z " fill="#000000" transform="translate(581,845)"/>
<path d="" fill="#000000" transform="translate(0,0)"/>
</svg>
